<?xml version="1.0" encoding="utf-8"?>
<!-- Generator: Adobe Illustrator 16.0.4, SVG Export Plug-In . SVG Version: 6.00 Build 0)  -->
<!DOCTYPE svg PUBLIC "-//W3C//DTD SVG 1.1//EN" "http://www.w3.org/Graphics/SVG/1.1/DTD/svg11.dtd">
<svg version="1.1" id="Layer_1" xmlns="http://www.w3.org/2000/svg" xmlns:xlink="http://www.w3.org/1999/xlink" x="0px" y="0px"
	 width="269.542px" height="420.945px" viewBox="0 0 269.542 420.945" enable-background="new 0 0 269.542 420.945"
	 xml:space="preserve">
<g>
	<path fill="#0D3D60" d="M194.111,131.443c0-0.135-0.007-2.339-0.01-3.12c0.007-2.522,0.018-5.045,0-7.571
		c-0.006-1.442,0.032-2.904-0.194-4.323c-0.983-6.041-4.143-10.846-8.696-14.796c-3.724-3.223-7.999-5.54-12.587-7.247
		c0.053-0.052-0.643-0.276-1.614-0.564c-1.789-0.595-3.608-1.112-5.414-1.683c-0.07-0.035-0.143-0.082-0.211-0.097
		c-1.538-0.41-3.088-0.753-4.645-1.064c1.403-5.002,1.26-10.199,1.864-15.319c-1.578,1.524-3.334,2.647-5.465,3.305
		c-1.809,1.216-3.965,1.92-6.312,1.815c0.752,2.398,1.189,4.917,0.511,7.834c-0.072,0.309-0.15,0.622-0.234,0.936
		c-0.303-0.027-0.606-0.055-0.909-0.081c-0.24-0.02-0.48-0.036-0.72-0.055c1.177-4.017,0.699-8.441-0.753-12.735
		c-0.646-1.913-1.073-3.631-1.064-5.466c-1.987,3.032-6.268,3.744-9.711,4.583c-4.732,1.139-9.085,3.079-9.579,8.657
		c-0.138,1.559-0.05,2.931,0.254,4.161c-0.242,0-0.484,0-0.726,0c-0.085,0.039-0.169,0.101-0.26,0.108
		c-1.251,0.078-2.5,0.132-3.745,0.217c2.058-3.44,3.131-7.61,2.909-11.374c-0.2-3.386-0.56-6.574-1.708-9.809
		c-0.414-1.034-0.989-1.994-1.648-2.9c-0.286-0.163-0.49-0.404-0.537-0.731c-0.093-0.112-0.163-0.237-0.261-0.354
		c-4.374-5.535-5.114,7.367-4.955,7.752c0.635,1.548-1.714,2.66-2.358,1.116c-1.703-4.113-0.62-7.682,2.004-10.57
		c-3.252-12.238-21.798-20.888-33.574-15.55c5.68,0.042,10.703,3.141,13.72,8.7c4.857,8.961-5.88,15.776-7.177,23.838
		c-0.05,0.307-0.188,0.541-0.361,0.72c1.581,4.719,3.043,9.569,3.565,14.363c-2.938-0.899-7.094-4.507-8.022-5.426
		c-2.082-2.064-2.372-4.653-1.51-7.305c1.296-3.977,3.757-6.932,5.287-10.551c-1.258-3.215-5.367-7.628-6.418-8.604
		c-4.107-3.771-9.544-6.096-14.935-7.562c0.031,0.023,0.062,0.042,0.093,0.074c1.141,0.816,1.952,1.948,2.758,3.071
		c2.158,2.982,2.844,6.998,3.388,10.543c1.588,10.384,0.748,20.025,5.691,29.771c0.611,1.205,1.295,2.377,2.045,3.506
		c-0.34,0.32-0.671,0.644-0.988,0.975c-1.539-2.361-2.838-4.849-3.905-7.229c-2.804-6.283-3.186-12.981-3.462-19.723
		c-0.329-8.074-0.892-18.252-9.495-21.852c-0.661-0.284-0.43-1.225,0.299-1.084c8.128,1.516,16.888,5.12,22.188,11.756
		c0.589,0.743,2.228,2.967,3.203,5.12c0.417-1.205,0.719-2.5,0.826-3.946c0.542-7.414-3.757-13.863-9.483-18.944
		c0.663,1.613,1.244,3.674,0.534,5.346c-0.163,0.385-0.837,0.385-0.792-0.113c0.226-2.328-0.188-4.163-1.149-6.29
		c-0.04-0.085-0.083-0.16-0.118-0.241c-4.117-3.344-8.765-6.022-12.831-7.884c-6.128-2.803-13.411-6.473-13.21-13.649
		c-3.184,3.533-5.89,8.467-4.263,12.736c0.474,0.509,0.954,0.999,1.434,1.488c0.251,0.261-0.113,0.6-0.377,0.386
		c-0.006,0-0.014-0.012-0.025-0.016c0.327,0.428,0.68,0.852,1.12,1.251c0.486,0.455-0.176,1.333-0.721,0.937
		c-1.785-1.325-2.782-2.896-3.192-4.599c-2.2-2.081-4.043-4.556-4.099-7.725c-0.12-6.85,1.971-12.371-5.151-16.246
		c-3.052-1.671-9.567-3.511-11.69-7.126c-0.962,4.012-1.716,7.344,2.072,11.123c1.497,1.493,4.638,2.954,5.334,5.131
		c0.566,1.777,0.116,3.604-0.181,5.396c-0.824,4.999-0.968,9.828-0.278,14.847c0.534,3.954,1.893,7.737,4.027,11.095
		c2.453,3.845,6.636,5.116,10.481,7.009c4.817,2.376,6.959,5.964,4.726,11.006c-0.153,0.358-0.772,0.44-1.019,0.125
		c-2.531-3.157-6.113-3.981-9.869-3.779c3.427,2.675,4.226,6.865,4.626,11.359c0.486,5.443,1.162,10.478,2.35,15.426
		c0.05,0.019,0.104,0.035,0.157,0.07c3.073,2.13,6.58,4.941,10.563,3.414c0.75-0.292,1.264,0.964,0.537,1.298
		c-2.883,1.345-6.65,0.56-9.504-1.24c0.012,0.055,0.016,0.109,0.029,0.152c0.229,0.221,0.387,0.528,0.327,0.914
		c-0.007,0.078-0.007,0.147-0.023,0.213c2.864,8.533,15.527,11.255,25.072,12.78c-0.401,1.638-0.591,3.391-0.531,5.287
		c0.14,4.447,0.16,8.899,0.148,13.353c-1.199-1.881-2.022-3.964-2.383-6.348c-1.676,3.118-4.516,5.754-7.532,3.706
		c-4.003-2.729-1.868-7.834,2.018-9.396c0.763-0.299,1.146,0.972,0.412,1.361c-1.465,0.583-2.441,1.78-2.933,3.588
		c0.41,2.484,1.673,3.363,3.778,2.647c1.157-0.603,2.175-1.629,2.762-2.99c0.612-1.427,2.152-6.395,0.103-7.308
		c-2.288-1.015-5.118-0.521-7.538-0.797c-1.516-0.167-3.26-0.739-4.455-1.727c-0.869,4.853-2.576,9.72-2.168,14.498
		c0.064,0.727,0.164,1.384,0.279,1.998c0.373-0.35,1.006,0.042,0.746,0.61c-0.13,0.284-0.284,0.513-0.426,0.766
		c0.612,2.107,3.447,4.429,5.031,5.4c-0.161-0.295-2.109-1.446-2.29-1.746c-0.022-0.036,0.91,0.44,0.059-0.074
		s1.576,1.135,2.231,1.82c0.462,0.151,0.944,0.288,1.47,0.412c1.811,0.377,3.345,0.937,4.994,1.874
		c1.02,0.595,0.25,2.542-0.769,1.94c-1.173-0.708-2.327-1.158-3.44-1.524c0.387,0.494,0.77,0.988,1.189,1.481
		c2.464,2.915,5.559,4.144,8.816,3.496c0,0.152,0-0.152,0,0.038c0.305,0,0.546,0,0.789,0c12.4,0,24.795,0,37.195,0
		c0.221,0,0.446-0.016,0.668-0.02c0.245,0.003,0.489,0.02,0.736,0.02c6.463,0,12.927,0,19.392,0c0.239,0,0.469,0,0.721,0
		c0,2.841,0,5.613,0,8.424c-0.303,0-0.548,0-0.787,0c-9.424,0-18.846,0-28.261,0.004c-0.249,0-0.49,0.015-0.737,0.022
		c-0.263-0.007-0.527-0.027-0.791-0.027c-0.909,0-1.818,0-2.727,0c-1.099-0.049-2.053-0.082-2.136,0c-15.655,0-31.308,0-46.967,0
		c-0.247,0-0.49,0.02-0.734-0.003c-2.003-0.198-3.991-0.028-5.968,0.252c-6.914,0.98-12.922,3.856-18.037,8.58
		c-5.261,4.847-8.696,10.874-11.117,17.537c-2.037,5.614-3.279,11.417-3.93,17.343c-0.264,2.398-0.421,4.809-0.631,7.211
		c-0.064,0.735-0.146,1.481-0.218,2.216c0,3.588,0,7.177,0,10.773c0.039,0.124,0.103,0.248,0.109,0.381
		c0.093,1.578,0.13,3.16,0.266,4.734c0.213,2.496,0.426,5.008,0.752,7.488c0.32,2.355,0.734,4.724,1.215,7.061
		c0,0.003,0.008,0.04,0.021,0.095c0.27,1.284,0.605,2.555,0.943,3.825c0.269,1.083,0.49,1.973,0.493,1.988
		c1.755,6.01,4.185,11.698,7.929,16.764c3.854,5.217,8.685,9.183,14.86,11.395c2.057,0.746,4.187,1.389,6.347,1.424
		c7.381,0.107,14.763,0.042,22.146,0.046c0.175,0,0.35-0.026,0.564-0.038c0-0.258,0-0.452,0-0.658
		c0-9.377,0.004-18.758-0.008-28.139c-0.002-2.721,0.204-5.419,0.743-8.098c0.657-3.262,1.588-6.434,3.003-9.459
		c2.937-6.263,7.375-11.096,13.636-14.15c4.881-2.395,10.092-3.367,15.473-3.464c5.399-0.085,10.808-0.019,16.211-0.027
		c-0.079,0.079,0.112,0.042,0.351-0.009c0.23-0.007,0.461-0.016,0.689-0.018c0.237,0.004,0.487,0.027,0.725,0.027
		c13.998,0,27.993,0.016,41.984-0.023c1.915-0.004,3.835-0.21,5.738-0.451c3.403-0.432,6.689-1.354,9.854-2.683
		c6.088-2.562,10.986-6.5,14.234-12.331c2.766-4.981,3.793-10.4,3.811-16.006C194.149,160.946,194.111,146.189,194.111,131.443z
		 M98.208,130.253c-6.706,0-12.144-5.431-12.144-12.14c0-6.706,5.438-12.145,12.144-12.145c6.705,0,12.142,5.439,12.142,12.145
		C110.349,124.822,104.912,130.253,98.208,130.253z M114.551,86.556c-0.886,0.533-1.851-0.976-0.978-1.535
		c4.057-2.625-0.661-6.081-3.497-6.551c-5.151-0.871-7.087,5.668-6.79,9.393c0.106,1.331,0.443,2.491,0.955,3.486
		c-0.628,0.14-1.253,0.299-1.878,0.455c-2.707-5.701-1.597-14.2,5.344-15.406C113.614,75.375,121.747,82.222,114.551,86.556z
		 M144.376,89.023c-0.723-0.055-1.446-0.107-2.168-0.166c-0.024-0.001-0.048-0.005-0.072-0.007c0.049-0.186,0.083-0.374,0.084-0.564
		c0.009-2.268-3.05-1.482-5.311,0.327c-1.277,0-2.556,0-3.833,0c0.519-0.966,1.223-1.871,2.133-2.663
		C138.73,82.882,145.176,84.952,144.376,89.023z"/>
	<path fill="#0D3D60" d="M98.207,107.252c-5.997,0-10.859,4.864-10.859,10.861c0,5.999,4.862,10.856,10.859,10.856
		c1.989,0,3.848-0.543,5.451-1.477c-1.007,0.432-2.114,0.673-3.279,0.673c-4.598,0-8.329-3.736-8.329-8.335
		c0-4.599,3.73-8.327,8.329-8.327c4.6,0,8.33,3.728,8.33,8.327c0,0.536-0.055,1.059-0.152,1.566
		c0.329-1.036,0.508-2.139,0.508-3.284C109.065,112.116,104.203,107.252,98.207,107.252z"/>
</g>
<g>
	<path fill="#A81D41" d="M170.946,311.723c5.997,0,10.859-4.864,10.859-10.861c0-5.999-4.862-10.856-10.859-10.856
		c-1.989,0-3.848,0.543-5.451,1.477c1.007-0.432,2.114-0.673,3.279-0.673c4.598,0,8.329,3.736,8.329,8.335
		c0,4.599-3.73,8.327-8.329,8.327c-4.6,0-8.33-3.728-8.33-8.327c0-0.536,0.055-1.059,0.152-1.566
		c-0.329,1.036-0.508,2.139-0.508,3.284C160.088,306.859,164.95,311.723,170.946,311.723z"/>
	<path fill="#A81D41" d="M255.888,195.137c0.001-1.31-0.065-2.64-0.273-3.938c-0.373-2.448-0.786-4.905-1.321-7.324
		c-1.379-6.372-3.462-12.49-6.793-18.119c-3.185-5.395-7.285-9.909-12.803-13.006c-3.796-2.125-7.844-3.442-12.211-3.483
		c-6.876-0.057-13.746-0.009-20.62-0.009c-0.216,0.001-0.429,0-0.665,0.001c0,0.35,0,0.595,0,0.832
		c0.002,9.49,0.01,18.976-0.014,28.458c0,1.554-0.037,3.142-0.283,4.672c-0.418,2.497-0.893,5.005-1.582,7.449
		c-1.342,4.743-3.607,9.043-6.933,12.718c-5.11,5.647-11.636,8.474-19.054,9.517c-1.586,0.221-3.176,0.314-4.768,0.359
		c-3.343,0.001-6.946,0.002-10.706,0.005c-0.755-0.036-1.362-0.049-1.587,0.001c-15.561,0.012-33.542,0.038-47.213,0.056
		c-1.764,0-3.548,0.115-5.302,0.318c-5.442,0.64-10.595,2.207-15.315,5.049c-4.621,2.781-8.189,6.545-10.542,11.42
		c-2.151,4.471-3.121,9.223-3.129,14.145c-0.026,18.089-0.013,36.182-0.015,54.271c0,0.261,0.037,0.289,0.008,0.539
		c-0.071,3.005,0.239,5.219,0.327,5.773c0,0-0.002,0.001-0.002,0.001c0.008,0.04,0.012,0.064,0.016,0.087
		c-0.001-0.005-0.002-0.015-0.003-0.021c0.024,0.132,0.052,0.264,0.076,0.396c0.022,0.179,0.042,0.34,0.062,0.32
		c1.238,5.101,3.997,9.282,7.855,12.761c4.386,3.961,9.553,6.55,15.09,8.465c2.652,0.916,5.337,1.658,8.046,2.275
		c-1.447,4.844-1.491,9.9-2.242,14.879c1.628-1.474,3.415-2.542,5.567-3.125c1.851-1.16,4.026-1.787,6.371-1.604
		c-0.672-2.426-1.027-4.959-0.25-7.859c0.055-0.205,0.116-0.412,0.177-0.619c0.539,0.066,1.08,0.12,1.62,0.18
		c-1.201,3.903-0.858,8.229,0.424,12.46c0.583,1.931,0.956,3.673,0.885,5.501c2.087-2.965,6.385-3.539,9.854-4.262
		c4.765-0.984,9.185-2.784,9.861-8.346c0.226-1.86,0.101-3.455-0.322-4.877c1.615-0.029,3.229-0.055,4.845-0.091
		c0.03,0,0.06-0.003,0.089-0.004c-2.395,3.611-3.645,8.196-3.371,12.289c0.226,3.383,0.611,6.565,1.787,9.786
		c0.42,1.039,1.004,1.995,1.668,2.896c0.291,0.151,0.494,0.407,0.545,0.72c0.095,0.123,0.16,0.24,0.26,0.352
		c4.424,5.5,5.059-7.402,4.896-7.783c-0.646-1.544,1.691-2.682,2.345-1.133c1.738,4.095,0.688,7.665-1.916,10.587
		c3.354,12.213,21.966,20.705,33.702,15.274c-5.684,0.001-10.728-3.051-13.79-8.59c-4.932-8.911,5.75-15.826,6.979-23.898
		c0.048-0.316,0.185-0.536,0.36-0.721c-1.719-4.99-3.3-10.121-3.765-15.2c0.454-0.172,0.903-0.352,1.351-0.535
		c2.93,0.737,7.338,4.728,8.287,5.71c2.037,2.11,2.271,4.705,1.354,7.338c-1.383,3.947-3.908,6.848-5.516,10.434
		c1.188,3.241,5.201,7.74,6.229,8.741c4.025,3.856,9.411,6.301,14.769,7.881c-0.03-0.022-0.062-0.042-0.092-0.075
		c-1.124-0.84-1.91-1.989-2.691-3.131c-2.094-3.026-2.691-7.058-3.159-10.613c-1.362-10.416-0.313-20.035-5.045-29.887
		c-0.669-1.393-1.438-2.742-2.289-4.035c0.333-0.344,0.649-0.695,0.956-1.05c1.653,2.565,3.021,5.295,4.12,7.894
		c2.668,6.342,2.905,13.047,3.034,19.793c0.153,8.08,0.496,18.266,9.02,22.052c0.654,0.299,0.404,1.233-0.322,1.079
		c-8.094-1.693-16.773-5.483-21.93-12.234c-0.572-0.757-2.162-3.016-3.091-5.188c-0.441,1.195-0.772,2.484-0.911,3.926
		c-0.705,7.4,3.455,13.942,9.071,19.146c-0.628-1.628-1.165-3.7-0.419-5.356c0.172-0.381,0.846-0.365,0.79,0.129
		c-0.276,2.324,0.099,4.169,1.014,6.317c0.038,0.084,0.079,0.159,0.112,0.241c4.044,3.433,8.633,6.211,12.658,8.163
		c6.064,2.933,13.266,6.76,12.91,13.931c3.26-3.467,6.072-8.337,4.538-12.641c-0.462-0.521-0.932-1.02-1.402-1.519
		c-0.245-0.267,0.128-0.599,0.386-0.378c0.006-0.001,0.014,0.012,0.023,0.016c-0.316-0.436-0.66-0.865-1.09-1.275
		c-0.478-0.467,0.204-1.33,0.739-0.921c1.757,1.363,2.719,2.957,3.093,4.665c2.154,2.129,3.943,4.644,3.932,7.813
		c-0.029,6.851-2.239,12.325,4.797,16.354c3.016,1.736,9.49,3.718,11.533,7.378c1.049-3.991,1.875-7.304-1.83-11.166
		c-1.464-1.524-4.572-3.053-5.222-5.244c-0.527-1.788-0.039-3.606,0.298-5.391c0.932-4.98,1.182-9.805,0.6-14.838
		c-0.449-3.965-1.726-7.777-3.787-11.18c-2.369-3.897-6.523-5.26-10.326-7.235c-4.764-2.48-6.828-6.113-4.485-11.104
		c0.159-0.355,0.78-0.424,1.021-0.103c2.461,3.21,6.025,4.112,9.783,3.99c-3.366-2.749-4.075-6.955-4.379-11.456
		c-0.367-5.453-0.934-10.5-2.014-15.473c-0.05-0.021-0.104-0.039-0.156-0.076c-3.026-2.195-6.473-5.081-10.486-3.64
		c-0.756,0.274-1.243-0.991-0.509-1.31c2.911-1.283,6.66-0.416,9.476,1.445c-0.013-0.055-0.014-0.108-0.027-0.153
		c-0.224-0.225-0.375-0.536-0.306-0.92c0.008-0.077,0.01-0.147,0.026-0.214c-2.8-8.982-16.445-11.848-26.065-13.547
		c0.312-1.44,0.455-2.968,0.414-4.593c-0.108-4.51-0.131-9.022-0.133-13.536c1.313,1.916,2.223,4.055,2.642,6.527
		c1.621-3.146,4.413-5.831,7.465-3.836c4.051,2.658,2.006,7.799-1.852,9.43c-0.759,0.312-1.163-0.952-0.435-1.354
		c1.454-0.608,2.409-1.822,2.868-3.64c-0.453-2.477-1.732-3.332-3.824-2.579c-1.146,0.622-2.146,1.666-2.709,3.037
		c-0.587,1.438-2.039,6.432,0.025,7.309c2.305,0.975,5.126,0.432,7.551,0.665c1.52,0.141,3.273,0.682,4.485,1.647
		c0.784-4.867,2.403-9.764,1.913-14.533c-0.078-0.726-0.189-1.381-0.314-1.993c-0.367,0.358-1.008-0.024-0.758-0.597
		c0.125-0.285,0.275-0.518,0.412-0.773c-0.648-2.097-3.523-4.366-5.125-5.311c0.166,0.294,2.148,1.4,2.32,1.705
		c-1.275-0.781,0.043,0.03,0,0c-1.596-1.107-1.652-1.032-2.32-1.705c-0.465-0.143-0.949-0.271-1.477-0.387
		c-1.816-0.345-3.361-0.877-5.025-1.785c-1.031-0.577-0.295-2.537,0.734-1.953c1.186,0.688,2.347,1.117,3.467,1.463
		c-0.396-0.487-0.787-0.974-1.216-1.461c-2.504-2.86-6.431-4.382-9.662-3.69c0,0,0.832,0.723,0.832,0.681
		c-0.001-0.219,0.007,0.076-0.008-0.176c0.037,0.68-0.583-0.504-0.824-0.505c-5.868,0.002-11.876,0.244-17.751,0.253
		c-12.766,0.002-25.53,0.004-38.301,0.006c-0.25,0.001-0.509,0.001-0.755,0.001c-0.002-2.854-0.001-5.618-0.002-8.425
		c0.272,0,0.493,0,0.711,0c3.881,0,7.754,0.003,11.629,0.002c23.352-0.004,46.706-0.002,70.064-0.018
		c1.99,0,3.994,0.053,5.979-0.164c6.161-0.658,11.692-2.977,16.563-6.795c5.558-4.332,9.36-9.986,12.128-16.396
		c1.926-4.494,3.209-9.172,4.146-13.959c0.604-3.07,0.914-6.149,0.9-9.279C255.865,212.889,255.911,204.02,255.888,195.137z
		 M170.946,288.722c6.706,0,12.144,5.431,12.144,12.14c0,6.706-5.438,12.145-12.144,12.145c-6.705,0-12.142-5.439-12.142-12.145
		C158.804,294.153,164.241,288.722,170.946,288.722z M151.917,334.564c0.883-0.554,1.855,0.945,0.988,1.521
		c-4.035,2.65,0.711,6.066,3.55,6.523c5.159,0.823,7.04-5.73,6.715-9.447c-0.142-1.604-0.618-2.956-1.329-4.068
		c0.652-0.137,1.304-0.276,1.953-0.429c3.091,5.657,2.203,14.694-4.954,15.992C152.946,345.733,144.754,338.948,151.917,334.564z
		 M134.187,331.52c-0.571,1.138-1.38,2.201-2.479,3.094c-3.575,2.912-9.827,0.732-9.093-3.22c0.749,0.048,1.499,0.098,2.249,0.138
		c-0.047,0.17-0.08,0.342-0.086,0.517c-0.092,2.41,3.394,1.481,5.736-0.488C131.737,331.548,132.961,331.537,134.187,331.52z"/>
</g>
</svg>
